# xmcd
#
# Track frame offsets: 
#        150
#        16651
#        36917
#        51170
#        59389
#        78793
#        94745
#        110494
#
# Disc length: 2003 seconds
#
# Revision: 0
# Processed by: cddbd v1.5.2PL0 Copyright (c) Steve Scherf et al.
# Submitted via: ExactAudioCopyFreeDBPlugin 1.0
#
DISCID=5907d108
DTITLE=1conito - L'Aventure D'mes Baskets
DYEAR=2010
DGENRE=Hip-Hop
TTITLE0=Intro
TTITLE1=Sous Nos Semelles ft Nefa and Jay-Lansen
TTITLE2=Je Danse Avec Le Diable ft Jo2plainp and Kekos
TTITLE3=L'Aventure D'mes Baskets
TTITLE4=Cosmonaute ft Y, Ikar and M-Atom
TTITLE5=6ème Sens
TTITLE6=Geneva's Parano ft A’s and D-Klo (Marekage Stretz)
TTITLE7=Blues Brothers ft Jay-Lansen and Jo2plainp
EXTD=
EXTT0=
EXTT1=
EXTT2=
EXTT3=
EXTT4=
EXTT5=
EXTT6=
EXTT7=
PLAYORDER=
